<?xml version="1.0" encoding="UTF-8" standalone="no"?>
<svg
   width="73.05616mm"
   height="18.107422mm"
   viewBox="0 0 73.05616 18.107422"
   version="1.1"
   id="jsonms_lo"
   xmlns="http://www.w3.org/2000/svg"
   xmlns:svg="http://www.w3.org/2000/svg">
  <defs
     id="defs1" />
  <g
     id="logo"
     transform="translate(-72.827469,-72.114051)">
    <path
       style="fill:#333333CC"
       d="m 93.006235,82.916492 h 3.447851 v 4.390429 q 0,0.434082 0.545703,0.434082 0.545703,0 0.545703,-0.434082 v -15.03164 h 3.906738 v 14.746387 q 0,3.199804 -4.427636,3.199804 -1.575098,0 -2.80293,-0.768945 -1.215429,-0.768945 -1.215429,-2.021582 z m 9.239745,0.0248 h 3.55947 v 4.080372 q 0,0.607714 0.73174,0.607714 0.70693,0 0.70693,-0.607714 v -2.108399 q 0,-0.967383 -1.28984,-2.269629 -2.49287,-2.418457 -3.10058,-3.249414 -0.60772,-0.830957 -0.60772,-1.823144 V 75.5743 q 0,-3.460253 4.51445,-3.460253 4.04317,0 4.04317,3.150195 v 3.075781 h -3.55948 v -3.274219 q 0,-0.5333 -0.58291,-0.5333 -0.68212,0 -0.68212,1.029394 l 0.0744,1.153418 q 0,0.992188 1.31465,2.306836 2.44326,2.344043 3.10058,3.274219 0.66973,0.930175 0.66973,2.108398 v 2.269629 q 0,3.54707 -4.52685,3.54707 -4.36563,0 -4.36563,-3.224609 z m 9.69863,4.080372 v -11.44736 q 0,-3.460253 4.48965,-3.460253 4.42764,0 4.42764,3.435449 v 11.447363 q 0,1.550293 -1.24024,2.393652 -1.22783,0.830957 -3.2122,0.830957 -4.46485,0 -4.46485,-3.199804 z m 5.09737,0.186035 v -12.11709 q 0,-0.533301 -0.63252,-0.533301 -0.65733,0 -0.65733,0.533301 v 12.11709 q 0,0.5333 0.65733,0.5333 0.63252,0 0.63252,-0.5333 z m 14.57275,2.852539 h -4.01836 l -2.6541,-9.475391 v 9.475391 h -3.26182 V 72.275281 h 4.44004 l 2.23242,8.111133 v -8.111133 h 3.26182 z"
       id="json"
       transform="translate(-1.0208333e-6)" />
    <path
      style="fill:#333333CC"
      d="m 133.82234,90.060242 h -1.6123 v -1.296045 h 1.6123 z m 7.18716,0 h -1.74253 v -4.991944 l -1.01699,4.991944 h -1.34565 l -1.16582,-4.991944 v 4.991944 h -1.52549 v -8.892481 h 2.51147 l 0.89297,4.613672 0.77515,-4.613672 h 2.61689 z m 0.42789,-3.559473 h 1.77973 v 2.040186 q 0,0.303857 0.36587,0.303857 0.35347,0 0.35347,-0.303857 v -1.0542 q 0,-0.483691 -0.64492,-1.134814 -1.24644,-1.209229 -1.5503,-1.624707 -0.30385,-0.415479 -0.30385,-0.911572 v -0.998389 q 0,-1.730127 2.25722,-1.730127 2.02159,0 2.02159,1.575098 v 1.53789 h -1.77974 v -1.637109 q 0,-0.26665 -0.29146,-0.26665 -0.34106,0 -0.34106,0.514697 l 0.0372,0.576709 q 0,0.496094 0.65732,1.153418 1.22163,1.172021 1.55029,1.637109 0.33487,0.465088 0.33487,1.054199 v 1.134815 q 0,1.773535 -2.26343,1.773535 -2.18281,0 -2.18281,-1.612305 z"
      id=".ms"
      transform="translate(-1.0208333e-6)" />
    <rect
       style="fill:#1867c0"
       id="box"
       width="17.337831"
       height="17.9037"
       x="72.827469"
       y="72.260315"
       rx="2.0757818"
       ry="2.0757818" />
    <path
        style="fill:#ffffff"
        d="m 80.819057,88.595086 q -1.43933,0 -2.235196,-0.237066 -0.778931,-0.237067 -1.083731,-0.745066 -0.304799,-0.507999 -0.304799,-1.320797 v -2.607728 q 0,-0.795865 -0.541866,-1.134531 -0.541865,-0.338666 -1.574797,-0.338666 v -1.981196 q 1.032932,0 1.574797,-0.338666 0.541866,-0.338666 0.541866,-1.134532 v -2.624661 q 0,-0.812798 0.304799,-1.320797 0.3048,-0.507999 1.083731,-0.745066 0.795866,-0.237066 2.235196,-0.237066 v 1.862663 q -0.660399,0.01693 -1.049865,0.237066 -0.389465,0.220133 -0.389465,0.931332 v 2.472262 q 0,1.54093 -1.930397,1.828796 v 0.1016 q 1.930397,0.287866 1.930397,1.828796 v 2.472262 q 0,0.711199 0.389465,0.931332 0.389466,0.220132 1.049865,0.237066 z m 1.354649,-1.862663 q 0.660398,-0.01693 1.049864,-0.237066 0.389466,-0.220133 0.389466,-0.931332 v -2.472262 q 0,-1.54093 1.930396,-1.828796 v -0.1016 q -1.930396,-0.287866 -1.930396,-1.828796 v -2.472262 q 0,-0.711199 -0.389466,-0.931332 -0.389466,-0.220133 -1.049864,-0.237066 v -1.862663 q 1.456263,0 2.235195,0.237066 0.778932,0.237067 1.083731,0.745066 0.3048,0.507999 0.3048,1.320797 v 2.624661 q 0,0.795866 0.541865,1.134532 0.541866,0.338666 1.574797,0.338666 v 1.981196 q -1.032931,0 -1.574797,0.338666 -0.541865,0.338666 -0.541865,1.134531 v 2.607728 q 0,0.812798 -0.3048,1.320797 -0.304799,0.507999 -1.083731,0.745066 -0.778932,0.237066 -2.235195,0.237066 z"
        id="{}" />
  </g>
</svg>
